<svg data-v-423bf9ae="" xmlns="http://www.w3.org/2000/svg" viewBox="0 0 566.883122432411 163" class="iconAbove"><!----><!----><!----><g data-v-423bf9ae="" id="e568dad3-28f9-4b0a-8059-1f64ce6a14f4" fill="black" transform="matrix(5.565862655639648,0,0,5.565862655639648,0.000007345857738982886,97.71243286132812)"><path d="M0.15 9.37L0.15 1.93L2.34 1.93L2.34 1.93Q2.70 3.25 3.83 7.21L3.83 7.21L4.69 7.21L4.69 7.21Q4.72 7.21 4.97 6.26L4.97 6.26L4.97 6.26Q5.52 4.40 6.19 1.93L6.19 1.93L8.22 1.93L8.22 8.29L8.33 8.29L8.33 9.45L7.72 9.45L7.72 9.66L8.33 9.66L8.33 11.73L6.61 11.73L6.61 10.97L6.82 10.97L6.82 8.62L6.46 8.62L6.46 7.44L6.24 7.44L6.23 7.51L6.04 7.51L6.04 9.18L5.45 9.18L5.45 9.96L4.94 9.96L4.94 11.29L3.73 11.29L3.73 10.44L2.98 10.44L2.98 9.28L2.54 9.28L2.54 8.07L2.28 8.07L2.28 8.07Q2.27 7.97 2.12 7.44L2.12 7.44L3.86 7.44L3.81 7.21L2.07 7.21L2.12 7.44L1.89 7.44L1.89 8.96L2.00 8.96L2.00 10.64L1.57 10.64L1.57 10.94L2.00 10.94L2.00 11.38L0.44 11.38L0.44 9.37L0.15 9.37ZM1.89 6.51L1.87 6.51L1.87 6.63L1.87 6.63Q1.87 6.78 1.89 7.21L1.89 7.21L2.05 7.21L2.05 7.21Q1.89 6.55 1.89 6.51L1.89 6.51ZM6.47 6.53L6.46 6.53L6.31 7.21L6.46 7.21L6.46 7.21Q6.47 6.79 6.47 6.60L6.47 6.60L6.47 6.53ZM1.87 7.21L1.33 7.21L1.33 7.44L1.87 7.44L1.87 7.21ZM6.30 7.21L4.72 7.21L4.67 7.44L6.23 7.44L6.23 7.44Q6.30 7.26 6.30 7.21L6.30 7.21ZM7.67 7.21L6.47 7.21L6.47 7.44L7.67 7.44L7.67 7.21ZM4.63 7.44L3.89 7.44L3.89 7.44Q4.01 7.97 4.04 7.97L4.04 7.97L4.24 7.97L4.24 8.85L4.55 8.85L4.55 7.49L4.63 7.49L4.63 7.44ZM8.33 9.66L8.33 9.45L9.32 9.45L9.32 9.66L8.33 9.66ZM8.43 10.12L8.43 9.74L8.51 9.74L8.51 9.89L8.65 9.89L8.65 9.78L8.65 9.78Q8.65 9.74 8.68 9.74L8.68 9.74L8.71 9.74L8.71 9.74Q8.74 9.75 8.74 9.78L8.74 9.78L8.74 10.09L8.74 10.09Q8.74 10.12 8.71 10.12L8.71 10.12L8.65 10.12L8.65 9.97L8.51 9.97L8.51 10.12L8.43 10.12ZM8.43 10.62L8.43 10.24L8.66 10.24L8.66 10.24Q8.70 10.25 8.70 10.27L8.70 10.27L8.70 10.32L8.51 10.32L8.51 10.39L8.66 10.39L8.66 10.47L8.51 10.47L8.51 10.62L8.43 10.62ZM8.45 10.74L8.45 10.74L8.68 10.74L8.68 10.74Q8.71 10.74 8.71 10.77L8.71 10.77L8.71 10.80L8.53 11.03L8.71 11.03L8.71 11.12L8.43 11.12L8.43 11.12Q8.39 11.12 8.39 11.07L8.39 11.07L8.39 11.07Q8.45 10.99 8.58 10.82L8.58 10.82L8.42 10.82L8.42 10.77L8.42 10.77Q8.42 10.74 8.45 10.74ZM8.43 11.53L8.43 11.23L8.51 11.23L8.51 11.45L8.53 11.53L8.61 11.53L8.61 11.53Q8.65 11.53 8.65 11.50L8.65 11.50L8.65 11.27L8.65 11.27Q8.65 11.23 8.68 11.23L8.68 11.23L8.71 11.23L8.71 11.23Q8.74 11.24 8.74 11.27L8.74 11.27L8.74 11.46L8.74 11.46Q8.74 11.61 8.59 11.61L8.59 11.61L8.57 11.61L8.57 11.61Q8.47 11.61 8.43 11.53L8.43 11.53ZM0 11.61L0 11.46L1.76 11.46L1.76 11.61L0 11.61ZM9.83 1.93L9.83 1.93L11.68 1.93L11.68 1.93Q11.70 1.94 11.70 1.97L11.70 1.97L11.70 6.73L11.70 6.73Q11.70 6.76 11.68 6.76L11.68 6.76L11.46 6.76L11.46 11.70L11.46 11.70Q11.46 11.73 11.42 11.73L11.42 11.73L9.83 11.73L9.83 11.73Q9.80 11.73 9.80 11.70L9.80 11.70L9.80 6.64L9.30 6.64L9.30 6.64Q9.27 6.64 9.27 6.61L9.27 6.61L9.27 6.40L9.27 6.40Q9.28 6.36 9.30 6.36L9.30 6.36L9.80 6.36L9.80 1.97L9.80 1.97Q9.80 1.93 9.83 1.93ZM10.75 6.36L9.81 6.36L9.81 6.64L10.75 6.64L10.75 6.36ZM15.82 1.93L15.82 1.93L15.82 1.93Q17.87 1.93 18.40 3.22L18.40 3.22L18.40 3.22Q18.55 3.53 18.55 3.63L18.55 3.63L17.69 3.63L17.69 3.89L18.62 3.89L18.62 3.88L18.62 3.88Q18.62 3.81 18.55 3.63L18.55 3.63L20.13 3.63L20.13 3.89L18.63 3.89L18.63 3.91L18.63 3.91Q18.75 4.46 18.80 5.09L18.80 5.09L18.80 5.09Q18.80 5.13 17.00 5.22L17.00 5.22L17.00 5.21L17.00 5.21Q17.00 3.58 15.89 3.58L15.89 3.58L15.68 3.58L15.68 3.58Q14.85 3.58 14.66 4.29L14.66 4.29L14.66 4.29Q14.52 4.89 14.52 5.87L14.52 5.87L14.52 7.21L14.50 7.40L13.87 7.40L13.87 7.71L14.50 7.71L14.50 10.08L17.13 10.08L17.13 7.62L18.65 7.62L18.65 10.08L17.81 10.08L17.81 11.60L16.05 11.60L16.05 11.73L14.68 11.73L14.68 11.60L13.30 11.60L13.30 10.84L14.22 10.84L14.22 10.51L12.83 10.51L12.83 9.39L12.24 9.39L12.24 8.00L12.56 8.00L12.56 8.00Q12.54 7.16 12.54 6.66L12.54 6.66L12.54 6.66Q12.54 4.42 12.75 3.84L12.75 3.84L12.75 3.84Q12.96 3.17 13.41 2.69L13.41 2.69L13.41 2.69Q14.22 1.93 15.82 1.93ZM19.16 10.60L19.16 2.00L21.08 2.00L21.08 3.83L21.08 3.83Q21.08 4.74 21.04 5.80L21.04 5.80L21.04 5.82L21.06 5.82L21.06 5.82Q21.29 5.37 22.35 3.51L22.35 3.51L22.35 3.51Q22.89 2.57 22.89 2.09L22.89 2.09L22.89 2.00L24.86 2.00L24.86 2.04L24.86 2.04Q24.86 2.98 24.09 4.09L24.09 4.09L22.93 5.78L24.07 8.21L25.10 8.21L25.10 8.50L23.94 8.50L23.94 8.52L23.94 8.52Q24.22 9.13 24.30 9.24L24.30 9.24L24.51 9.24L24.51 10.12L24.81 10.12L24.81 11.72L24.81 11.72Q24.31 11.73 24.07 11.73L24.07 11.73L23.60 11.73L23.60 11.73Q23.34 11.73 22.91 11.72L22.91 11.72L22.91 10.65L22.48 10.65L22.48 9.24L22.24 9.24L21.98 8.50L23.93 8.50L23.93 8.21L22.14 8.21L22.14 8.21Q22.14 8.18 21.83 7.23L21.83 7.23L21.81 7.23L21.81 7.23Q21.65 7.54 21.16 8.21L21.16 8.21L21.98 8.21L21.98 8.50L21.08 8.50L21.08 8.98L20.96 8.98L20.96 11.20L21.08 11.20L21.08 11.70L21.08 11.70Q21.08 11.73 21.04 11.73L21.04 11.73L19.20 11.73L19.20 11.73Q19.16 11.73 19.16 11.70L19.16 11.70L19.16 10.93L20.03 10.93L20.03 10.60L19.16 10.60ZM21.14 8.21L19.95 8.21L19.95 8.50L21.06 8.50L21.06 8.50Q21.06 8.45 21.14 8.21L21.14 8.21ZM27.16 1.70L26.74 4.16L26.53 4.16L26.11 1.70L26.11 1.70Q26.08 1.54 26.08 1.48L26.08 1.48L26.08 1.48Q26.08 1.22 26.22 1.09L26.22 1.09L26.22 1.09Q26.36 0.95 26.63 0.95L26.63 0.95L26.63 0.95Q26.89 0.95 27.04 1.08L27.04 1.08L27.04 1.08Q27.19 1.22 27.19 1.47L27.19 1.47L27.19 1.47Q27.19 1.52 27.16 1.70L27.16 1.70ZM31.08 1.96L31.08 1.96L31.08 1.96Q32.71 1.96 33.26 3.01L33.26 3.01L33.26 3.01Q33.65 3.80 33.65 4.56L33.65 4.56L33.63 4.56L33.63 4.56Q32.52 4.66 32.11 4.66L32.11 4.66L32.11 4.66Q32.11 4.12 31.77 3.75L31.77 3.75L31.77 3.75Q31.46 3.57 31.19 3.57L31.19 3.57L30.92 3.57L30.92 3.57Q30.22 3.57 30.07 4.11L30.07 4.11L30.07 4.11Q30.04 4.27 30.04 4.35L30.04 4.35L30.04 4.50L30.04 4.50Q30.04 5.26 30.84 5.61L30.84 5.61L30.84 5.61Q30.91 5.67 31.96 6.12L31.96 6.12L31.96 6.12Q32.53 6.38 33.00 6.76L33.00 6.76L33.00 6.77L31.29 6.77L31.29 6.97L33.55 6.97L33.55 7.24L33.84 7.24L33.84 10.21L33.28 10.21L33.28 11.73L28.93 11.73L28.93 10.21L27.90 10.21L27.90 9.18L28.49 9.18L28.49 8.83L27.90 8.83L27.90 8.59L29.89 8.59L29.89 10.21L31.93 10.21L31.93 7.77L30.41 7.77L30.41 6.97L28.51 6.97L28.51 6.77L29.43 6.77L29.43 6.76L29.43 6.76Q28.23 5.96 28.23 4.50L28.23 4.50L28.23 4.37L28.23 4.37Q28.23 3.14 28.98 2.51L28.98 2.51L28.98 2.51Q29.66 1.96 31.08 1.96ZM33.55 6.97L33.55 6.77L34.24 6.77L34.24 6.97L33.55 6.97ZM27.25 9.18L27.25 8.83L27.90 8.83L27.90 9.18L27.25 9.18ZM37.97 9.37L37.97 1.93L40.15 1.93L40.15 1.93Q40.52 3.25 41.64 7.21L41.64 7.21L42.51 7.21L42.51 7.21Q42.54 7.21 42.79 6.26L42.79 6.26L42.79 6.26Q43.33 4.40 44.01 1.93L44.01 1.93L46.03 1.93L46.03 8.29L46.15 8.29L46.15 9.45L45.53 9.45L45.53 9.66L46.15 9.66L46.15 11.73L44.43 11.73L44.43 10.97L44.64 10.97L44.64 8.62L44.28 8.62L44.28 7.44L44.06 7.44L44.04 7.51L43.86 7.51L43.86 9.18L43.26 9.18L43.26 9.96L42.75 9.96L42.75 11.29L41.54 11.29L41.54 10.44L40.80 10.44L40.80 9.28L40.35 9.28L40.35 8.07L40.10 8.07L40.10 8.07Q40.09 7.97 39.94 7.44L39.94 7.44L41.67 7.44L41.62 7.21L39.89 7.21L39.94 7.44L39.70 7.44L39.70 8.96L39.82 8.96L39.82 10.64L39.39 10.64L39.39 10.94L39.82 10.94L39.82 11.38L38.26 11.38L38.26 9.37L37.97 9.37ZM39.70 6.51L39.69 6.51L39.69 6.63L39.69 6.63Q39.69 6.78 39.70 7.21L39.70 7.21L39.87 7.21L39.87 7.21Q39.70 6.55 39.70 6.51L39.70 6.51ZM44.29 6.53L44.28 6.53L44.13 7.21L44.28 7.21L44.28 7.21Q44.29 6.79 44.29 6.60L44.29 6.60L44.29 6.53ZM39.69 7.21L39.14 7.21L39.14 7.44L39.69 7.44L39.69 7.21ZM44.11 7.21L42.53 7.21L42.49 7.44L44.04 7.44L44.04 7.44Q44.11 7.26 44.11 7.21L44.11 7.21ZM45.49 7.21L44.29 7.21L44.29 7.44L45.49 7.44L45.49 7.21ZM42.45 7.44L41.71 7.44L41.71 7.44Q41.82 7.97 41.86 7.97L41.86 7.97L42.05 7.97L42.05 8.85L42.37 8.85L42.37 7.49L42.45 7.49L42.45 7.44ZM46.15 9.66L46.15 9.45L47.14 9.45L47.14 9.66L46.15 9.66ZM46.25 10.12L46.25 9.74L46.33 9.74L46.33 9.89L46.46 9.89L46.46 9.78L46.46 9.78Q46.46 9.74 46.50 9.74L46.50 9.74L46.53 9.74L46.53 9.74Q46.56 9.75 46.56 9.78L46.56 9.78L46.56 10.09L46.56 10.09Q46.56 10.12 46.53 10.12L46.53 10.12L46.46 10.12L46.46 9.97L46.33 9.97L46.33 10.12L46.25 10.12ZM46.25 10.62L46.25 10.24L46.48 10.24L46.48 10.24Q46.51 10.25 46.51 10.27L46.51 10.27L46.51 10.32L46.33 10.32L46.33 10.39L46.48 10.39L46.48 10.47L46.33 10.47L46.33 10.62L46.25 10.62ZM46.27 10.74L46.27 10.74L46.50 10.74L46.50 10.74Q46.53 10.74 46.53 10.77L46.53 10.77L46.53 10.80L46.35 11.03L46.53 11.03L46.53 11.12L46.25 11.12L46.25 11.12Q46.21 11.12 46.21 11.07L46.21 11.07L46.21 11.07Q46.27 10.99 46.40 10.82L46.40 10.82L46.23 10.82L46.23 10.77L46.23 10.77Q46.24 10.74 46.27 10.74ZM46.25 11.53L46.25 11.23L46.33 11.23L46.33 11.45L46.35 11.53L46.43 11.53L46.43 11.53Q46.46 11.53 46.46 11.50L46.46 11.50L46.46 11.27L46.46 11.27Q46.46 11.23 46.50 11.23L46.50 11.23L46.53 11.23L46.53 11.23Q46.56 11.24 46.56 11.27L46.56 11.27L46.56 11.46L46.56 11.46Q46.56 11.61 46.41 11.61L46.41 11.61L46.38 11.61L46.38 11.61Q46.29 11.61 46.25 11.53L46.25 11.53ZM37.82 11.61L37.82 11.46L39.57 11.46L39.57 11.61L37.82 11.61ZM47.09 6.33L47.09 1.94L48.97 1.94L48.97 7.12L48.08 7.12L48.08 7.39L48.97 7.39L48.97 8.36L48.97 8.36Q48.97 9.69 49.44 9.91L49.44 9.91L49.44 9.91Q49.68 10.06 50.04 10.06L50.04 10.06L50.62 10.06L50.62 8.34L51.13 8.34L51.13 1.94L53.01 1.94L53.01 7.96L52.33 7.96L52.33 8.39L53.01 8.39L53.01 8.39Q52.99 8.61 52.99 8.72L52.99 8.72L52.99 10.64L52.01 10.64L52.01 11.73L47.63 11.73L47.63 10.38L47.23 10.38L47.23 6.33L47.09 6.33ZM48.97 7.39L48.97 7.12L50.04 7.12L50.04 7.39L48.97 7.39ZM56.72 1.96L56.72 1.96L56.72 1.96Q58.34 1.96 58.90 3.01L58.90 3.01L58.90 3.01Q59.28 3.80 59.28 4.56L59.28 4.56L59.27 4.56L59.27 4.56Q58.15 4.66 57.74 4.66L57.74 4.66L57.74 4.66Q57.74 4.12 57.41 3.75L57.41 3.75L57.41 3.75Q57.09 3.57 56.83 3.57L56.83 3.57L56.55 3.57L56.55 3.57Q55.86 3.57 55.71 4.11L55.71 4.11L55.71 4.11Q55.67 4.27 55.67 4.35L55.67 4.35L55.67 4.50L55.67 4.50Q55.67 5.26 56.48 5.61L56.48 5.61L56.48 5.61Q56.55 5.67 57.60 6.12L57.60 6.12L57.60 6.12Q58.16 6.38 58.64 6.76L58.64 6.76L58.64 6.77L56.92 6.77L56.92 6.97L59.19 6.97L59.19 7.24L59.47 7.24L59.47 10.21L58.91 10.21L58.91 11.73L54.56 11.73L54.56 10.21L53.54 10.21L53.54 9.18L54.12 9.18L54.12 8.83L53.54 8.83L53.54 8.59L55.53 8.59L55.53 10.21L57.57 10.21L57.57 7.77L56.04 7.77L56.04 6.97L54.15 6.97L54.15 6.77L55.06 6.77L55.06 6.76L55.06 6.76Q53.86 5.96 53.86 4.50L53.86 4.50L53.86 4.37L53.86 4.37Q53.86 3.14 54.61 2.51L54.61 2.51L54.61 2.51Q55.30 1.96 56.72 1.96ZM59.19 6.97L59.19 6.77L59.88 6.77L59.88 6.97L59.19 6.97ZM52.88 9.18L52.88 8.83L53.54 8.83L53.54 9.18L52.88 9.18ZM60.54 1.93L60.54 1.93L62.38 1.93L62.38 1.93Q62.41 1.94 62.41 1.97L62.41 1.97L62.41 6.73L62.41 6.73Q62.41 6.76 62.38 6.76L62.38 6.76L62.17 6.76L62.17 11.70L62.17 11.70Q62.17 11.73 62.13 11.73L62.13 11.73L60.54 11.73L60.54 11.73Q60.50 11.73 60.50 11.70L60.50 11.70L60.50 6.64L60.01 6.64L60.01 6.64Q59.98 6.64 59.98 6.61L59.98 6.61L59.98 6.40L59.98 6.40Q59.99 6.36 60.01 6.36L60.01 6.36L60.50 6.36L60.50 1.97L60.50 1.97Q60.51 1.93 60.54 1.93ZM61.46 6.36L60.52 6.36L60.52 6.64L61.46 6.64L61.46 6.36ZM66.53 1.93L66.53 1.93L66.53 1.93Q68.58 1.93 69.10 3.22L69.10 3.22L69.10 3.22Q69.26 3.53 69.26 3.63L69.26 3.63L68.40 3.63L68.40 3.89L69.33 3.89L69.33 3.88L69.33 3.88Q69.33 3.81 69.26 3.63L69.26 3.63L70.84 3.63L70.84 3.89L69.34 3.89L69.34 3.91L69.34 3.91Q69.46 4.46 69.51 5.09L69.51 5.09L69.51 5.09Q69.51 5.13 67.71 5.22L67.71 5.22L67.71 5.21L67.71 5.21Q67.71 3.58 66.60 3.58L66.60 3.58L66.39 3.58L66.39 3.58Q65.56 3.58 65.37 4.29L65.37 4.29L65.37 4.29Q65.23 4.89 65.23 5.87L65.23 5.87L65.23 7.21L65.21 7.40L64.58 7.40L64.58 7.71L65.21 7.71L65.21 10.08L67.84 10.08L67.84 7.62L69.36 7.62L69.36 10.08L68.52 10.08L68.52 11.60L66.76 11.60L66.76 11.73L65.39 11.73L65.39 11.60L64.00 11.60L64.00 10.84L64.93 10.84L64.93 10.51L63.54 10.51L63.54 9.39L62.95 9.39L62.95 8.00L63.27 8.00L63.27 8.00Q63.25 7.16 63.25 6.66L63.25 6.66L63.25 6.66Q63.25 4.42 63.46 3.84L63.46 3.84L63.46 3.84Q63.67 3.17 64.12 2.69L64.12 2.69L64.12 2.69Q64.93 1.93 66.53 1.93ZM76.99 1.93L76.99 1.93L77 1.93L77 1.93Q79.19 1.93 79.69 3.36L79.69 3.36L79.69 3.36Q79.91 3.89 79.91 4.85L79.91 4.85L78.32 5.07L78.30 5.03L78.30 5.00L78.30 5.00Q78.30 3.84 77.52 3.62L77.52 3.62L77.52 3.62Q77.28 3.55 76.94 3.53L76.94 3.53L76.94 3.53Q76.09 3.53 75.84 4.44L75.84 4.44L75.84 4.44Q75.70 5.05 75.70 5.88L75.70 5.88L75.70 6.64L75.70 6.64Q75.70 7.98 75.74 8.65L75.74 8.65L76.14 8.65L76.14 10.02L78.09 10.02L78.09 7.68L76.86 7.68L76.86 6.43L80.56 6.43L80.56 6.71L80.08 6.71L80.08 8.16L79.08 8.16L79.08 8.61L79.57 8.61L79.57 11.39L74.27 11.39L74.27 9.91L73.67 9.91L73.67 9.78L73.93 9.78L73.93 9.63L74.27 9.63L74.27 9.08L73.34 9.08L73.34 7.90L73.78 7.90L73.78 7.90Q73.77 7.38 73.77 7.29L73.77 7.29L73.77 7.29Q73.77 4.18 74.11 3.53L74.11 3.53L74.11 3.53Q74.20 3.13 74.68 2.64L74.68 2.64L74.68 2.64Q75.37 1.93 76.99 1.93ZM75.88 8.52L75.88 8.09L75.97 8.09L75.97 8.52L75.88 8.52ZM79.86 8.67L79.86 8.67L79.86 8.67Q79.97 8.71 79.97 8.76L79.97 8.76L79.97 8.82L79.97 8.82Q79.97 8.85 79.91 8.89L79.91 8.89L79.91 8.89Q79.93 8.91 79.93 8.93L79.93 8.93L79.96 8.93L79.96 8.90L80.04 8.90L80.04 8.92L80.04 8.92Q80.04 9.00 80.01 9.00L80.01 9.00L80.01 9.00Q80.01 9.02 80.09 9.11L80.09 9.11L79.99 9.11L79.95 9.08L79.95 9.08Q79.88 9.13 79.82 9.13L79.82 9.13L79.82 9.13Q79.71 9.13 79.69 8.98L79.69 8.98L79.69 8.98Q79.71 8.91 79.76 8.89L79.76 8.89L79.76 8.89Q79.75 8.80 79.75 8.76L79.75 8.76L79.75 8.76Q79.75 8.71 79.86 8.67ZM79.83 8.79L79.83 8.79L79.83 8.79Q79.84 8.82 79.84 8.84L79.84 8.84L79.84 8.84Q79.87 8.84 79.89 8.79L79.89 8.79L79.89 8.79Q79.89 8.76 79.86 8.76L79.86 8.76L79.86 8.76Q79.83 8.76 79.83 8.79ZM79.89 9.00L79.82 8.93L79.78 8.98L79.78 9.00L79.78 9.00Q79.78 9.02 79.83 9.05L79.83 9.05L79.83 9.05Q79.89 9.02 79.89 9.00L79.89 9.00ZM79.86 9.37L79.86 9.37L79.86 9.37Q79.97 9.41 79.97 9.45L79.97 9.45L79.97 9.52L79.97 9.52Q79.97 9.54 79.91 9.58L79.91 9.58L79.91 9.58Q79.93 9.62 79.93 9.63L79.93 9.63L79.96 9.63L79.96 9.60L80.04 9.60L80.04 9.62L80.04 9.62Q80.04 9.70 80.01 9.70L80.01 9.70L80.01 9.70Q80.01 9.71 80.09 9.81L80.09 9.81L79.99 9.81L79.95 9.78L79.95 9.78Q79.88 9.83 79.82 9.83L79.82 9.83L79.82 9.83Q79.71 9.83 79.69 9.68L79.69 9.68L79.69 9.68Q79.71 9.62 79.76 9.58L79.76 9.58L79.76 9.58Q79.75 9.50 79.75 9.45L79.75 9.45L79.75 9.45Q79.75 9.41 79.86 9.37ZM79.83 9.49L79.83 9.49L79.83 9.49Q79.84 9.52 79.84 9.54L79.84 9.54L79.84 9.54Q79.87 9.54 79.89 9.49L79.89 9.49L79.89 9.49Q79.89 9.45 79.86 9.45L79.86 9.45L79.86 9.45Q79.83 9.46 79.83 9.49ZM76.45 9.49L76.45 9.49L76.45 9.49Q76.66 9.52 76.66 9.68L76.66 9.68L76.66 9.73L76.66 9.73Q76.64 9.94 76.45 9.94L76.45 9.94L76.43 9.94L76.43 9.94Q76.23 9.94 76.23 9.70L76.23 9.70L76.23 9.70Q76.29 9.49 76.45 9.49ZM76.82 9.57L76.82 9.50L77.18 9.50L77.18 9.60L77.07 9.60L77.07 9.91L77.07 9.91Q77.07 9.94 77.03 9.94L77.03 9.94L76.99 9.94L76.99 9.94Q76.95 9.94 76.95 9.91L76.95 9.91L76.95 9.60L76.86 9.60L76.86 9.60Q76.82 9.60 76.82 9.57L76.82 9.57ZM76.35 9.70L76.35 9.70L76.35 9.78L76.35 9.78Q76.35 9.80 76.42 9.84L76.42 9.84L76.49 9.84L76.49 9.84Q76.55 9.84 76.56 9.71L76.56 9.71L76.56 9.71Q76.56 9.63 76.48 9.58L76.48 9.58L76.47 9.58L76.47 9.58Q76.35 9.58 76.35 9.70ZM79.82 9.63L79.82 9.63L79.78 9.68L79.78 9.70L79.78 9.70Q79.78 9.72 79.83 9.75L79.83 9.75L79.83 9.75Q79.89 9.72 79.89 9.70L79.89 9.70L79.89 9.70Q79.82 9.63 79.82 9.63ZM79.84 10.07L79.84 10.07L79.84 10.07Q79.93 10.07 79.97 10.15L79.97 10.15L79.97 10.22L79.97 10.22Q79.97 10.25 79.91 10.28L79.91 10.28L79.91 10.28Q79.93 10.32 79.93 10.33L79.93 10.33L79.96 10.33L79.96 10.30L80.04 10.30L80.04 10.32L80.04 10.32Q80.04 10.40 80.01 10.40L80.01 10.40L80.01 10.40Q80.01 10.41 80.09 10.51L80.09 10.51L79.99 10.51L79.95 10.48L79.95 10.48Q79.88 10.53 79.82 10.53L79.82 10.53L79.82 10.53Q79.71 10.53 79.69 10.38L79.69 10.38L79.69 10.38Q79.71 10.32 79.76 10.28L79.76 10.28L79.75 10.17L79.75 10.15L79.75 10.15Q79.75 10.12 79.84 10.07ZM79.83 10.19L79.83 10.19L79.83 10.19Q79.84 10.22 79.84 10.23L79.84 10.23L79.84 10.23Q79.87 10.23 79.89 10.19L79.89 10.19L79.89 10.19Q79.89 10.15 79.86 10.15L79.86 10.15L79.86 10.15Q79.83 10.16 79.83 10.19ZM79.89 10.40L79.82 10.33L79.78 10.38L79.78 10.40L79.78 10.40Q79.78 10.42 79.83 10.45L79.83 10.45L79.83 10.45Q79.89 10.42 79.89 10.40L79.89 10.40ZM79.84 10.77L79.84 10.77L79.84 10.77Q79.93 10.77 79.97 10.86L79.97 10.86L79.97 10.92L79.97 10.92Q79.97 10.94 79.91 10.99L79.91 10.99L79.91 10.99Q79.93 11.01 79.93 11.03L79.93 11.03L79.96 11.03L79.96 11.00L80.04 11.00L80.04 11.01L80.01 11.13L80.01 11.13Q80.03 11.13 80.09 11.21L80.09 11.21L79.99 11.21L79.95 11.18L79.95 11.18Q79.88 11.22 79.82 11.22L79.82 11.22L79.82 11.22Q79.71 11.22 79.69 11.08L79.69 11.08L79.69 11.08Q79.71 11.01 79.76 10.99L79.76 10.99L79.75 10.87L79.75 10.86L79.75 10.86Q79.75 10.82 79.84 10.77ZM79.83 10.88L79.83 10.88L79.83 10.88Q79.84 10.92 79.84 10.93L79.84 10.93L79.84 10.93Q79.87 10.93 79.89 10.88L79.89 10.88L79.89 10.88Q79.89 10.86 79.86 10.86L79.86 10.86L79.86 10.86Q79.83 10.86 79.83 10.88ZM79.89 11.09L79.82 11.03L79.78 11.08L79.78 11.09L79.78 11.09Q79.78 11.12 79.83 11.14L79.83 11.14L79.83 11.14Q79.89 11.12 79.89 11.09L79.89 11.09ZM75.63 11.73L75.63 11.53L77.65 11.53L77.65 11.73L75.63 11.73ZM81.98 7.57L83.67 1.96L85.31 1.96L85.31 1.96Q85.35 2.10 86.91 7.29L86.91 7.29L87.21 7.29L87.21 10.51L86.54 10.51L86.54 10.76L87.21 10.76L87.21 11.45L85.39 11.45L85.39 9.47L83.17 9.47L83.17 10.32L82.26 10.32L82.26 11.73L80.62 11.73L80.62 11.63L80.75 11.63L80.75 10.32L81.42 10.32L81.42 7.57L81.98 7.57ZM84.47 4.71L84.44 4.71L84.44 4.72L84.44 4.72Q84.23 5.89 83.62 8.40L83.62 8.40L85.15 8.40L85.15 7.29L85.02 7.29L85.02 7.29Q84.47 4.92 84.47 4.71L84.47 4.71ZM80.14 7.57L80.14 7.28L81.42 7.28L81.42 7.57L80.14 7.57ZM85.39 11.73L85.39 11.57L87.59 11.57L87.59 11.73L85.39 11.73ZM87.46 9.38L87.46 1.98L89.63 1.98L89.63 1.98Q90.00 3.29 91.11 7.23L91.11 7.23L91.97 7.23L91.97 7.23Q92.00 7.23 92.25 6.30L92.25 6.30L92.25 6.30Q92.79 4.44 93.47 1.98L93.47 1.98L95.48 1.98L95.48 8.31L95.59 8.31L95.59 9.46L94.98 9.46L94.98 9.67L95.59 9.67L95.59 11.73L93.88 11.73L93.88 10.97L94.09 10.97L94.09 8.63L93.73 8.63L93.73 7.46L93.52 7.46L93.50 7.53L93.32 7.53L93.32 9.19L92.72 9.19L92.72 9.97L92.22 9.97L92.22 11.29L91.01 11.29L91.01 10.45L90.28 10.45L90.28 9.30L89.83 9.30L89.83 8.09L89.58 8.09L89.58 8.09Q89.56 8.00 89.41 7.46L89.41 7.46L91.14 7.46L91.10 7.23L89.37 7.23L89.41 7.46L89.19 7.46L89.19 8.98L89.30 8.98L89.30 10.64L88.87 10.64L88.87 10.94L89.30 10.94L89.30 11.38L87.75 11.38L87.75 9.38L87.46 9.38ZM89.19 6.54L89.17 6.54L89.17 6.66L89.17 6.66Q89.17 6.81 89.19 7.23L89.19 7.23L89.35 7.23L89.35 7.23Q89.19 6.58 89.19 6.54L89.19 6.54ZM93.75 6.56L93.73 6.56L93.58 7.23L93.73 7.23L93.73 7.23Q93.75 6.82 93.75 6.62L93.75 6.62L93.75 6.56ZM89.17 7.23L88.63 7.23L88.63 7.46L89.17 7.46L89.17 7.23ZM93.56 7.23L92.00 7.23L91.95 7.46L93.50 7.46L93.50 7.46Q93.56 7.29 93.56 7.23L93.56 7.23ZM94.93 7.23L93.75 7.23L93.75 7.46L94.93 7.46L94.93 7.23ZM91.92 7.46L91.18 7.46L91.18 7.46Q91.29 7.99 91.33 7.99L91.33 7.99L91.53 7.99L91.53 8.87L91.83 8.87L91.83 7.51L91.92 7.51L91.92 7.46ZM95.59 9.67L95.59 9.46L96.58 9.46L96.58 9.67L95.59 9.67ZM87.31 11.61L87.31 11.46L89.05 11.46L89.05 11.61L87.31 11.61ZM97.02 6.80L97.02 2.00L101.81 2.00L101.81 3.60L101.81 3.60Q101.81 3.63 101.78 3.63L101.78 3.63L98.94 3.63L98.94 5.74L101.49 5.74L101.49 5.76L101.49 5.76Q101.49 5.84 101.46 6.79L101.46 6.79L101.46 6.79Q101.44 6.79 101.44 6.80L101.44 6.80L101.55 6.80L101.55 7.29L99.35 7.29L99.35 9.29L98.75 9.29L98.75 9.49L99.35 9.49L99.35 10.10L101.85 10.10L101.85 10.32L101.65 10.32L101.65 11.52L98.66 11.52L98.66 11.73L97.23 11.73L97.23 8.24L97.02 8.24L97.02 7.01L95.46 7.01L95.46 6.80L97.02 6.80ZM97.84 6.80L97.04 6.80L97.04 7.01L97.84 7.01L97.84 6.80Z"></path></g><!----><g data-v-423bf9ae="" id="795e4411-ebb6-43f0-b57f-b7d191a8f5c0" transform="matrix(1.5118935108184814,0,0,1.5118935108184814,208.40457153320312,-30.358675003051758)" stroke="none" fill="black"><path d="M13.281 20.236C8.765 20.236 5 24.001 5 28.517v42.966c0 4.516 3.765 8.281 8.281 8.281H86.72c4.516 0 8.281-3.765 8.281-8.281V28.517c0-4.516-3.765-8.281-8.281-8.281H13.28zm0 8.281H32.1v42.966H13.281V28.517zm22.959 0h27.52v42.966H36.24V28.517zm31.66 0H86.72v42.966H67.9V28.517zm-44.6 6.607a4.255 4.255 0 0 0-4.253 4.254 4.255 4.255 0 0 0 4.254 4.254 4.255 4.255 0 0 0 4.254-4.254 4.255 4.255 0 0 0-4.254-4.254zm53.4 0a4.255 4.255 0 0 0-4.255 4.254 4.255 4.255 0 0 0 4.254 4.254 4.255 4.255 0 0 0 4.254-4.254 4.255 4.255 0 0 0-4.254-4.254zm-34.977.273v4.675h16.562v-4.675H41.723zm-19.15 17.064a8.281 8.281 0 0 0-8.281 8.281 8.281 8.281 0 0 0 8.281 8.281 8.281 8.281 0 0 0 8.281-8.281 8.281 8.281 0 0 0-8.281-8.281zm54.854 0a8.281 8.281 0 0 0-8.281 8.281 8.281 8.281 0 0 0 8.281 8.281 8.281 8.281 0 0 0 8.281-8.281 8.281 8.281 0 0 0-8.281-8.281zM43.179 53.6a2.07 2.07 0 0 0-2.07 2.07v9.51a2.07 2.07 0 0 0 2.07 2.07h13.173a2.07 2.07 0 0 0 2.07-2.07v-9.51a2.07 2.07 0 0 0-2.07-2.07H43.18z" style="line-height:normal;text-indent:0;text-align:start;text-decoration-line:none;text-decoration-style:solid;text-decoration-color:#000;text-transform:none;block-progression:tb;isolation:auto;mix-blend-mode:normal" color="#000" font-weight="400" font-family="sans-serif" white-space="normal" overflow="visible"></path></g><!----></svg>