<svg data-v-fde0c5aa="" xmlns="http://www.w3.org/2000/svg" viewBox="0 0 300 300" class="icon"><!----><defs data-v-fde0c5aa=""><!----></defs><rect data-v-fde0c5aa="" fill="#156EAC" x="0" y="0" width="300px" height="300px" class="logo-background-square"></rect><!----><defs data-v-fde0c5aa=""><!----></defs><g data-v-fde0c5aa="" id="39591e35-6f64-41b3-928d-29e2f190636a" fill="#F6575E" stroke="none" transform="matrix(2.4444172382354736,0,0,2.4444172382354736,27.777913504141146,27.77913504141147)"><path d="M13.281 20.236C8.765 20.236 5 24.001 5 28.517v42.966c0 4.516 3.765 8.281 8.281 8.281H86.72c4.516 0 8.281-3.765 8.281-8.281V28.517c0-4.516-3.765-8.281-8.281-8.281H13.28zm0 8.281H32.1v42.966H13.281V28.517zm22.959 0h27.52v42.966H36.24V28.517zm31.66 0H86.72v42.966H67.9V28.517zm-44.6 6.607a4.255 4.255 0 0 0-4.253 4.254 4.255 4.255 0 0 0 4.254 4.254 4.255 4.255 0 0 0 4.254-4.254 4.255 4.255 0 0 0-4.254-4.254zm53.4 0a4.255 4.255 0 0 0-4.255 4.254 4.255 4.255 0 0 0 4.254 4.254 4.255 4.255 0 0 0 4.254-4.254 4.255 4.255 0 0 0-4.254-4.254zm-34.977.273v4.675h16.562v-4.675H41.723zm-19.15 17.064a8.281 8.281 0 0 0-8.281 8.281 8.281 8.281 0 0 0 8.281 8.281 8.281 8.281 0 0 0 8.281-8.281 8.281 8.281 0 0 0-8.281-8.281zm54.854 0a8.281 8.281 0 0 0-8.281 8.281 8.281 8.281 0 0 0 8.281 8.281 8.281 8.281 0 0 0 8.281-8.281 8.281 8.281 0 0 0-8.281-8.281zM43.179 53.6a2.07 2.07 0 0 0-2.07 2.07v9.51a2.07 2.07 0 0 0 2.07 2.07h13.173a2.07 2.07 0 0 0 2.07-2.07v-9.51a2.07 2.07 0 0 0-2.07-2.07H43.18z" style="line-height:normal;text-indent:0;text-align:start;text-decoration-line:none;text-decoration-style:solid;text-decoration-color:#000;text-transform:none;block-progression:tb;isolation:auto;mix-blend-mode:normal" color="#000" font-weight="400" font-family="sans-serif" white-space="normal" overflow="visible"></path></g><!----></svg>